<?xml version="1.0" encoding="utf-8"?>
<!-- Generator: Adobe Illustrator 16.0.0, SVG Export Plug-In . SVG Version: 6.00 Build 0)  -->
<!DOCTYPE svg PUBLIC "-//W3C//DTD SVG 1.1//EN" "http://www.w3.org/Graphics/SVG/1.1/DTD/svg11.dtd">
<svg version="1.1" id="Layer_1" xmlns="http://www.w3.org/2000/svg" xmlns:xlink="http://www.w3.org/1999/xlink" x="0px" y="0px"
	 width="34px" height="34px" viewBox="0 0 34 34" enable-background="new 0 0 34 34" xml:space="preserve">
<g>
	<rect fill="#F7D1D1" width="34" height="34"/>
	<path fill="#F85A4F" d="M17.004,19.346C8.838,19.346,0,23.584,0,34c3.594,0,9.006,0,17.004,0c7.999,0,14.799,0,16.996,0
		C34,23.541,25.17,19.346,17.004,19.346z"/>
	<path fill="#493E59" d="M21.184,11.516c0-1.987-0.899-4.446-4.173-4.452V7.063c-0.002,0-0.004,0-0.007,0c-0.002,0-0.004,0-0.006,0
		v0.001c-3.273,0.006-4.173,2.465-4.173,4.452c0,1.99-2.438,4.924-0.837,6.349c0.772,0.688,2.96,0.546,5.016,0.216
		c2.057,0.33,4.243,0.473,5.017-0.216C23.622,16.44,21.184,13.505,21.184,11.516z"/>
	<path fill="#F8B2B2" d="M20.015,14.25c0.212-1.076,0.116-1.918,0-2.479c-0.115-0.553-1.078-2.443-2.992-2.495V9.274
		c-0.006,0-0.012,0.001-0.019,0.001c-0.006,0-0.012-0.001-0.018-0.001v0.002c-1.914,0.052-2.877,1.942-2.992,2.495
		c-0.116,0.56-0.212,1.403,0,2.479c0.23,1.283,1.271,2.473,1.77,2.717c0.019,0.604-0.139,2.111-0.266,2.402
		c-0.196,0.023-0.811,0.078-1.266,0.156c0.09,0.295,0.497,1.879,2.768,1.879c2.27,0,2.687-1.583,2.776-1.879
		c-0.455-0.078-1.069-0.133-1.266-0.156c-0.127-0.291-0.284-1.799-0.266-2.402C18.743,16.723,19.784,15.533,20.015,14.25z"/>
	<path fill="#493E59" d="M20.149,12.684c-0.16,0.139-4.711,0.063-4.645-2.643c-0.002,1.547-1.532,3.609-1.532,4.516
		c-0.409,0.452-1.439-1.391-0.8-3.372c0.64-1.98,1.591-2.817,3.747-2.817C19.077,8.369,20.762,10.956,20.149,12.684z"/>
	<path fill="#F59493" d="M15.764,16.967c0,0,0.476,0.38,1.215,0.389c0.74,0.009,1.267-0.389,1.267-0.389s-0.403,0.628-1.241,0.628
		C16.167,17.595,15.764,16.967,15.764,16.967z"/>
</g>
</svg>
